<?xml version="1.0" encoding="UTF-8" standalone="no" ?>
<!DOCTYPE svg PUBLIC "-//W3C//DTD SVG 1.1//EN" "http://www.w3.org/Graphics/SVG/1.1/DTD/svg11.dtd">
<svg xmlns="http://www.w3.org/2000/svg" xmlns:xlink="http://www.w3.org/1999/xlink" version="1.1" width="400" height="400" viewBox="0 0 400 400" xml:space="preserve">
<desc>Created with Fabric.js 3.6.2</desc>
<defs>
</defs>
<g transform="matrix(3.22 0 0 3.22 200 200)" id="VK"  >
<path style="stroke: none; stroke-width: 1; stroke-dasharray: none; stroke-linecap: butt; stroke-dashoffset: 0; stroke-linejoin: miter; stroke-miterlimit: 4; fill: rgb(0,0,0); fill-rule: nonzero; opacity: 1;"  transform=" translate(-32, -31.9)" d="M 60 51.1 h -8.4 c -1 0 -2 -0.6 -2.6 -1.4 l -0.8 -1.3 c -0.5 -0.6 -5.1 -5.9 -7.9 -7.6 c -1.1 -0.6 -1.5 -0.5 -1.5 -0.5 c 0 0 -0.1 0.3 -0.1 0.4 v 5.3 c 0 2.8 -2.3 5 -5 5 h -2 c -0.5 0 -11.7 -0.2 -20.6 -13.5 c -7 -10.4 -9.3 -17.2 -10.1 -21.1 c -0.2 -0.9 0.1 -1.8 0.6 -2.5 c 0.6 -0.7 1.4 -1.1 2.3 -1.1 h 7.1 c 1.3 0 2.4 0.8 2.8 2.1 c 0.8 2.3 2.8 8.2 5.2 12 c 3.5 5.8 4.9 6.3 5.3 6.3 c 0.3 -0.5 0.2 -2.5 0.2 -3.8 c 0 -0.6 0 -1.1 0 -1.7 c 0 -0.4 0 -0.9 0 -1.4 c 0 -2.5 0.1 -5.9 -0.9 -7.5 l -2 -2.9 c -0.4 -0.6 -0.5 -1.4 -0.1 -2.1 c 0.3 -0.7 1 -1.1 1.8 -1.1 h 11.4 c 1.7 0 3 1.4 3 3 v 14.4 c 0 0.1 0.1 0.2 0.1 0.2 c 0 0 0.4 0 1.5 -1 c 2.3 -2.3 5.2 -6.6 8.1 -12.5 l 1 -2.3 c 0.5 -1.1 1.6 -1.8 2.8 -1.8 h 7.4 c 1 0 1.9 0.5 2.5 1.3 c 0.6 0.8 0.7 1.9 0.3 2.8 l -0.8 2.1 c 0 0 0 0.1 0 0.1 c -0.1 0.2 -2.8 5.5 -5.6 9.4 c -2.2 3 -3.1 4.4 -2.9 4.9 c 0.2 0.3 1.5 1.8 2.8 3 c 2.4 2.5 5.4 5.7 6.5 7.8 c 0.5 0.9 1 1.7 1.3 2.4 c 0.5 0.9 0.5 2 -0.1 3 C 62 50.6 61.1 51.1 60 51.1 z M 39 38.3 c 0.7 0 1.5 0.3 2.4 0.8 c 3.3 1.9 8.3 7.8 8.5 8.1 c 0 0 0.1 0.1 0.1 0.1 l 0.8 1.3 c 0.2 0.3 0.5 0.5 0.9 0.5 H 60 c 0.5 0 0.8 -0.3 0.9 -0.5 c 0.1 -0.1 0.3 -0.5 0 -1 c -0.4 -0.7 -0.8 -1.5 -1.3 -2.4 c -1 -1.8 -4 -5 -6.2 -7.4 c -2.2 -2.4 -3 -3.2 -3.2 -3.7 c -0.6 -1.5 0.3 -2.7 3.2 -6.7 c 2.6 -3.6 5.1 -8.5 5.4 -9.1 l 0.8 -2.1 c 0.1 -0.3 0.1 -0.7 -0.1 -0.9 c -0.2 -0.3 -0.5 -0.4 -0.8 -0.4 h -7.4 c -0.4 0 -0.8 0.2 -0.9 0.6 l -1 2.4 c -2.2 4.3 -5.4 10 -8.5 13.1 c -1.3 1.3 -2.5 1.7 -3.5 1.4 c -1.2 -0.4 -1.5 -1.7 -1.5 -1.8 c 0 -0.1 0 -0.1 0 -0.2 V 15.9 c 0 -0.6 -0.5 -1 -1 -1 H 23.3 l 2 2.9 c 1.3 2.1 1.3 5.8 1.2 8.7 c 0 0.5 0 0.9 0 1.3 c 0 0.5 0 1.1 0 1.6 c 0.1 2.8 0.1 5.4 -1.7 5.8 c -2 0.4 -4.1 -1.7 -7.5 -7.2 c -2.3 -3.9 -4.3 -9.4 -5.3 -12.4 c -0.1 -0.4 -0.5 -0.7 -1 -0.7 H 4 c -0.3 0 -0.6 0.1 -0.8 0.4 C 3 15.5 3 15.8 3 16.1 c 0.7 3.7 3 10.2 9.8 20.4 c 8.3 12.4 18.8 12.6 18.9 12.6 h 2 c 1.7 0 3 -1.4 3 -3 v -5.3 c 0 -0.1 0 -1.5 1.1 -2.2 C 38.2 38.4 38.6 38.3 39 38.3 z" stroke-linecap="round" />
</g>
</svg>