<?xml version="1.0" encoding="UTF-8" standalone="no" ?>
<!DOCTYPE svg PUBLIC "-//W3C//DTD SVG 1.1//EN" "http://www.w3.org/Graphics/SVG/1.1/DTD/svg11.dtd">
<svg xmlns="http://www.w3.org/2000/svg" xmlns:xlink="http://www.w3.org/1999/xlink" version="1.1" width="400" height="400" viewBox="0 0 400 400" xml:space="preserve">
<desc>Created with Fabric.js 3.6.2</desc>
<defs>
</defs>
<g transform="matrix(0.4 0 0 0.4 200 200)" id="rect3787"  >
<path style="stroke: none; stroke-width: 1; stroke-dasharray: none; stroke-linecap: butt; stroke-dashoffset: 0; stroke-linejoin: miter; stroke-miterlimit: 4; fill: rgb(0,0,0); fill-rule: nonzero; opacity: 1;"  transform=" translate(-555.75, -351.61)" d="m 359.90162 101.61222 c -30 0 -54.15162 24.15162 -54.15162 54.15162 l 0 391.69672 c 0 30 24.15162 54.15162 54.15162 54.15162 l 391.69676 0 c 30 0 54.15162 -24.15162 54.15162 -54.15162 l 0 -391.69672 c 0 -30 -24.15162 -54.15162 -54.15162 -54.15162 l -391.69676 0 z m 209.72473 133.00989 c 4.55336 -0.0217 10.47318 0.78956 14.21481 3.38447 c 2.75823 1.91293 6.38595 4.12683 6.4305 12.7482 c 0.14585 28.20531 -0.19531 52.77408 0.22563 81.56588 c 0.54968 5.99304 4.44372 8.47917 8.12275 8.4612 c 3.67906 -0.0181 7.89985 -2.31784 11.05595 -5.41517 c 17.09239 -16.78122 36.78376 -57.14202 48.84928 -83.59657 c 4.5026 -9.87231 11.76859 -9.23884 19.96841 -9.2509 c 27.45307 -0.0404 38.56964 0.30686 64.30506 0.45126 c 4.71278 0.0253 8.81967 4.00621 10.15343 6.88177 c 1.15173 2.48314 1.97732 9.67636 -4.28701 19.8556 c -19.27141 31.31509 -36.98928 56.5326 -58.43863 86.30415 c -1.35288 1.8778 -2.63841 4.1165 -2.59476 6.4305 c 0.0401 2.11603 1.13661 4.21972 2.59476 5.75362 c 19.12444 20.11808 39.08766 40.36245 58.66426 62.5 c 5.76791 6.52245 2.14647 16.58465 0.56408 19.40433 c -1.19873 2.13606 -6.61328 7.64224 -10.26624 7.67148 c -13.3035 0.1065 -13.33704 0 -69.04332 0 c -8.24953 0 -11.54267 -2.40957 -15.90704 -6.99459 c -19.31433 -20.29079 -16.93426 -17.83971 -38.13177 -40.5009 c -2.75383 -2.94397 -8.2121 -6.64343 -13.42509 -4.287 c -4.4248 2.00014 -12.52257 4.95151 -12.52257 13.08664 c 0 8.67863 0 19.82336 0 28.4296 c 0 5.16336 -8.10198 9.02527 -12.97382 9.02527 c -11.50051 0 -20.67935 0 -37.90614 0 c -17.84513 0 -33.29166 -4.30307 -41.85469 -8.46119 c -36.89177 -17.91429 -58.82448 -42.86379 -82.80686 -84.38628 c -20.47877 -35.45643 -38.2983 -70.36487 -55.84386 -106.94946 c -1.96022 -4.08733 -3.35315 -13.08664 11.28158 -13.08664 c 15.4612 0 29.96087 -0.33827 53.47473 -0.33827 c 6.90286 0 11.19628 1.38986 14.10199 3.49729 c 2.9057 2.1074 4.33476 4.91668 5.75361 7.55867 c 29.2539 54.47242 29.3204 57.80624 50.20307 84.83754 c 1.96054 2.5378 4.7878 2.92184 6.88177 2.93322 c 2.58754 0.0144 4.98068 -0.406 6.99458 -2.03069 c 4.22769 -3.41061 5.41516 -7.06404 5.41516 -12.29693 c 0 -18.33729 0 -32.03715 0 -55.05415 c 0 -6.3126 -4.2761 -15.67051 -9.02527 -18.61462 c -4.92011 -2.83217 -13.007 -5.6382 -12.74819 -9.13809 c 0.28303 -3.82794 9.19105 -10.26625 25.04512 -10.26625 c 18.9552 0 32.38903 -0.0144 53.47473 -0.11263 z" stroke-linecap="round" />
</g>
</svg>