<?xml version="1.0" encoding="UTF-8" standalone="no" ?>
<!DOCTYPE svg PUBLIC "-//W3C//DTD SVG 1.1//EN" "http://www.w3.org/Graphics/SVG/1.1/DTD/svg11.dtd">
<svg xmlns="http://www.w3.org/2000/svg" xmlns:xlink="http://www.w3.org/1999/xlink" version="1.1" width="400" height="400" viewBox="0 0 400 400" xml:space="preserve">
<desc>Created with Fabric.js 3.6.2</desc>
<defs>
</defs>
<g transform="matrix(7.31 0 0 7.31 200 200)" id="VK"  >
<path style="stroke: none; stroke-width: 1; stroke-dasharray: none; stroke-linecap: butt; stroke-dashoffset: 0; stroke-linejoin: miter; stroke-miterlimit: 4; fill: rgb(255,255,255); fill-rule: nonzero; opacity: 1;"  transform=" translate(-16, -16.01)" d="M 25.6 16.41 c 1.38 -1.76 4.5 -6 3.8 -7.7 a 1.39 1.39 0 0 0 -1.33 -0.85 H 24.26 a 1 1 0 0 0 -0.84 0.47 a 48.4 48.4 0 0 1 -3.87 5.41 V 9.81 A 1.91 1.91 0 0 0 17.6 7.86 H 12.84 a 1 1 0 0 0 -0.71 0.29 a 1.56 1.56 0 0 0 -0.51 1.55 a 2.17 2.17 0 0 0 0.63 0.94 a 1.32 1.32 0 0 1 0.54 1.08 V 15.3 c -0.67 -0.59 -1.95 -2.23 -3.78 -6.81 a 1 1 0 0 0 -0.93 -0.63 H 3.32 a 1 1 0 0 0 0 2 H 7.41 c 2 4.85 3.8 7.38 5.5 7.73 a 1.75 1.75 0 0 0 1.59 -0.41 a 1 1 0 0 0 0.29 -0.7 V 11.72 a 3.16 3.16 0 0 0 -0.57 -1.86 h 3.33 v 5.66 a 1 1 0 0 0 0.29 0.71 a 1.3 1.3 0 0 0 1.08 0.37 c 1.16 -0.14 3.15 -2.4 5.9 -6.74 h 2.57 a 28.31 28.31 0 0 1 -3.83 5.91 a 1 1 0 0 0 0 1.41 c 3 2.95 3.79 4.38 4 5 H 24.33 a 7.05 7.05 0 0 1 -1.28 -1.37 a 24.64 24.64 0 0 0 -1.89 -2.15 c -0.41 -0.41 -1.49 -1.5 -2.61 -1 a 1.79 1.79 0 0 0 -1 1.73 V 22 a 6.93 6.93 0 0 1 -1.85 0.16 c -4.75 0 -8.42 -6.58 -10.19 -10.51 a 1 1 0 0 0 -1.82 0.82 c 2 4.37 6.14 11.69 12 11.69 c 1.15 0 3.85 0 3.85 -1.95 V 19.85 l 0.2 0.19 a 24.25 24.25 0 0 1 1.75 2 c 0.95 1.17 1.7 2.1 2.76 2.1 h 3.81 a 1.61 1.61 0 0 0 1.48 -1 C 29.94 22.23 29.75 20.68 25.6 16.41 Z" stroke-linecap="round" />
</g>
</svg>