<?xml version="1.0" encoding="UTF-8" standalone="no" ?>
<!DOCTYPE svg PUBLIC "-//W3C//DTD SVG 1.1//EN" "http://www.w3.org/Graphics/SVG/1.1/DTD/svg11.dtd">
<svg xmlns="http://www.w3.org/2000/svg" xmlns:xlink="http://www.w3.org/1999/xlink" version="1.1" width="400" height="400" viewBox="0 0 400 400" xml:space="preserve">
<desc>Created with Fabric.js 3.6.2</desc>
<defs>
</defs>
<g transform="matrix(0.39 0 0 0.39 200 200.02)" id="Layer_1"  >
<path style="stroke: none; stroke-width: 1; stroke-dasharray: none; stroke-linecap: butt; stroke-dashoffset: 0; stroke-linejoin: miter; stroke-miterlimit: 4; fill: rgb(255,255,255); fill-rule: nonzero; opacity: 1;"  transform=" translate(-256, -256.05)" d="M 265 96 c 65.3 0 118.7 1.1 168.1 3.3 l 0.7 0 h 0.7 c 23.1 0 42 22 42 49.1 v 1.1 l 0.1 1.1 c 2.3 34 3.4 69.3 3.4 104.9 v 0 v 0 c 0.1 35.6 -1.1 70.9 -3.4 104.9 l -0.1 1.1 v 1.1 c 0 13.8 -4.7 26.6 -13.4 36.1 c -7.8 8.6 -18 13.4 -28.6 13.4 h -0.8 l -0.8 0 c -52.9 2.5 -108.8 3.8 -166.4 3.8 c -3.5 0 -7.1 0 -10.6 0 H 256 h -0.1 c -3.6 0 -7.2 0 -10.8 0 c -57.8 0 -113.7 -1.3 -166.2 -3.7 l -0.8 0 h -0.8 c -10.6 0 -20.7 -4.8 -28.5 -13.4 c -8.6 -9.5 -13.4 -22.3 -13.4 -36.1 v -1.1 l -0.1 -1.1 c -2.4 -34.1 -3.5 -69.4 -3.3 -104.7 v -0.1 v -0.1 c -0.1 -35.3 1 -70.5 3.3 -104.6 l 0.1 -1.1 v -1.1 c 0 -27.2 18.8 -49.3 41.9 -49.3 H 78 l 0.7 0 c 49.5 -2.3 102.9 -3.3 168.2 -3.3 h 9 H 265 M 265 64 c -3 0 -6 0 -9 0 s -6 0 -9 0 c -57.6 0 -114.2 0.8 -169.6 3.3 c -40.8 0 -73.9 36.3 -73.9 81.3 C 1 184.4 -0.1 220 0 255.7 c -0.1 35.7 0.9 71.3 3.4 107 c 0 45 33.1 81.6 73.9 81.6 c 54.8 2.6 110.7 3.8 167.8 3.8 c 3.6 0 7.3 0 10.9 0 c 3.6 0 7.2 0 10.7 0 c 57.1 0 113 -1.2 167.9 -3.8 c 40.9 0 74 -36.6 74 -81.6 c 2.4 -35.7 3.5 -71.4 3.4 -107.1 c 0.1 -35.7 -1 -71.3 -3.4 -107.1 c 0 -45 -33.1 -81.1 -74 -81.1 C 379.2 64.8 322.7 64 265 64 L 265 64 z" stroke-linecap="round" />
</g>
<g transform="matrix(0.39 0 0 0.39 209.18 199.84)" id="Layer_1"  >
<path style="stroke: none; stroke-width: 1; stroke-dasharray: none; stroke-linecap: butt; stroke-dashoffset: 0; stroke-linejoin: miter; stroke-miterlimit: 4; fill: rgb(255,255,255); fill-rule: nonzero; opacity: 1;"  transform=" translate(-279.5, -255.6)" d="M 207 353.8 V 157.4 l 145 98.2 L 207 353.8 z" stroke-linecap="round" />
</g>
</svg>