<?xml version="1.0" encoding="UTF-8" standalone="no" ?>
<!DOCTYPE svg PUBLIC "-//W3C//DTD SVG 1.1//EN" "http://www.w3.org/Graphics/SVG/1.1/DTD/svg11.dtd">
<svg xmlns="http://www.w3.org/2000/svg" xmlns:xlink="http://www.w3.org/1999/xlink" version="1.1" width="400" height="400" viewBox="0 0 400 400" xml:space="preserve">
<desc>Created with Fabric.js 3.6.2</desc>
<defs>
</defs>
<g transform="matrix(8.35 0 0 8.35 200 200)" id="Layer_1"  >
<path style="stroke: none; stroke-width: 1; stroke-dasharray: none; stroke-linecap: butt; stroke-dashoffset: 0; stroke-linejoin: miter; stroke-miterlimit: 4; fill: rgb(0,0,0); fill-rule: nonzero; opacity: 1;"  transform=" translate(-12, -12)" d="M 12.001 20.781 h -0.005 c -0.604 -0.006 -5.922 -0.063 -7.675 -0.233 c -0.126 -0.021 -0.206 -0.031 -0.293 -0.042 c -0.642 -0.078 -1.774 -0.216 -2.678 -1.175 c -0.801 -0.823 -1.055 -2.385 -1.098 -2.689 c -0.01 -0.084 -0.231 -1.908 -0.231 -3.786 v -1.722 c 0 -1.891 0.228 -3.751 0.23 -3.771 C 0.294 7.052 0.546 5.485 1.36 4.649 c 0.967 -1.026 2.068 -1.133 2.598 -1.184 l 0.128 -0.014 c 3.146 -0.231 7.862 -0.233 7.909 -0.233 s 4.771 0.002 7.892 0.23 l 0.158 0.017 c 0.527 0.051 1.627 0.157 2.605 1.193 c 0.801 0.826 1.055 2.387 1.098 2.691 c 0.01 0.084 0.23 1.909 0.23 3.784 v 1.722 c 0 1.894 -0.229 3.754 -0.229 3.773 c -0.045 0.311 -0.297 1.875 -1.109 2.711 c -0.963 1.022 -2.061 1.133 -2.586 1.185 l -0.137 0.015 C 16.744 20.771 12.047 20.781 12.001 20.781 z M 11.995 4.019 c -0.047 0 -4.734 0.002 -7.839 0.231 L 4.039 4.262 C 3.537 4.31 2.704 4.391 1.938 5.203 C 1.403 5.752 1.125 6.884 1.044 7.467 C 1.043 7.48 0.822 9.292 0.822 11.134 v 1.722 c 0 1.829 0.215 3.607 0.224 3.683 c 0.081 0.573 0.359 1.701 0.883 2.239 c 0.709 0.753 1.584 0.859 2.163 0.931 c 0.136 0.016 0.229 0.027 0.339 0.048 c 1.717 0.165 7.332 0.223 7.569 0.225 l 0.001 0.4 v -0.4 c 0.046 0 4.729 -0.012 7.847 -0.239 l 0.123 -0.013 c 0.5 -0.05 1.33 -0.133 2.092 -0.942 c 0.533 -0.549 0.813 -1.68 0.893 -2.262 c 0.002 -0.013 0.223 -1.824 0.223 -3.669 v -1.722 c 0 -1.827 -0.215 -3.604 -0.225 -3.68 c -0.08 -0.574 -0.357 -1.701 -0.883 -2.242 c -0.773 -0.822 -1.607 -0.902 -2.105 -0.95 l -0.148 -0.016 C 16.736 4.021 12.042 4.019 11.995 4.019 z M 8.893 16.27 L 8.891 7.235 l 8.556 4.534 L 8.893 16.27 z M 9.692 8.566 l 0.001 6.377 l 6.037 -3.177 L 9.692 8.566 z" stroke-linecap="round" />
</g>
</svg>