<?xml version="1.0" encoding="UTF-8" standalone="no" ?>
<!DOCTYPE svg PUBLIC "-//W3C//DTD SVG 1.1//EN" "http://www.w3.org/Graphics/SVG/1.1/DTD/svg11.dtd">
<svg xmlns="http://www.w3.org/2000/svg" xmlns:xlink="http://www.w3.org/1999/xlink" version="1.1" width="400" height="400" viewBox="0 0 400 400" xml:space="preserve">
<desc>Created with Fabric.js 3.6.2</desc>
<defs>
</defs>
<g transform="matrix(6.25 0 0 6.25 200 200)" id="Youtube"  >
<path style="stroke: none; stroke-width: 1; stroke-dasharray: none; stroke-linecap: butt; stroke-dashoffset: 0; stroke-linejoin: miter; stroke-miterlimit: 4; fill: rgb(1,1,1); fill-rule: nonzero; opacity: 1;"  transform=" translate(-16, -16)" d="M 24.1 26 H 7.9 A 5.91 5.91 0 0 1 2 20.1 V 11.9 A 5.91 5.91 0 0 1 7.9 6 H 24.1 A 5.91 5.91 0 0 1 30 11.9 v 8.2 A 5.91 5.91 0 0 1 24.1 26 Z M 7.9 8 A 3.91 3.91 0 0 0 4 11.9 v 8.2 A 3.91 3.91 0 0 0 7.9 24 H 24.1 A 3.91 3.91 0 0 0 28 20.1 V 11.9 A 3.91 3.91 0 0 0 24.1 8 Z" stroke-linecap="round" />
</g>
<g transform="matrix(6.25 0 0 6.25 203.12 200.02)" id="Youtube"  >
<path style="stroke: none; stroke-width: 1; stroke-dasharray: none; stroke-linecap: butt; stroke-dashoffset: 0; stroke-linejoin: miter; stroke-miterlimit: 4; fill: rgb(1,1,1); fill-rule: nonzero; opacity: 1;"  transform=" translate(-16.5, -16)" d="M 13 21 a 1 1 0 0 1 -1 -1 V 12 a 1 1 0 0 1 0.5 -0.86 a 1 1 0 0 1 1 0 l 7 4 a 1 1 0 0 1 0.05 1.7 l -3 2 a 1 1 0 1 1 -1.1 -1.66 l 1.65 -1.1 L 14 13.72 V 20 A 1 1 0 0 1 13 21 Z" stroke-linecap="round" />
</g>
</svg>